# AST/ASF file generated using VICON BodyLanguage
# -----------------------------------------------
:version 1.10
:name VICON
:units
  mass 1.0
  length 0.45
  angle deg
:documentation
   .ast/.asf automatically generated from VICON data using
   VICON BodyBuilder and BodyLanguage model FoxedUp or BRILLIANT.MOD
:root
   order TX TY TZ RX RY RZ
   axis XYZ
   position 0 0 0  
   orientation 0 0 0 
:bonedata
  begin
     id 1 
     name lhipjoint
     direction 0.635376 -0.686425 0.353719 
     length 2.47244 
     axis 0 0 0  XYZ
  end
  begin
     id 2 
     name lfemur
     direction 0.34202 -0.939693 0  
     length 7.25268  
     axis 0 0 20  XYZ
    dof rx ry rz
    limits (-160.0 20.0)
           (-70.0 70.0)
           (-60.0 70.0)
  end
  begin
     id 3 
     name ltibia
     direction 0.34202 -0.939693 0   
     length 7.6767   
     axis 0 0 20   XYZ
    dof rx
    limits (-10.0 170.0)
  end
  begin
     id 4 
     name lfoot
     direction 0.0803374 -0.220725 0.972022   
     length 2.22945   
     axis -90 7.62852e-016 20   XYZ
    dof rx rz
    limits (-45.0 90.0)
           (-70.0 20.0)
  end
  begin
     id 5 
     name ltoes
     direction 1.53579e-011 -4.21994e-011 1   
     length 1.11848   
     axis -90 7.62852e-016 20   XYZ
    dof rx
    limits (-90.0 20.0)
  end
  begin
     id 6 
     name rhipjoint
     direction -0.664428 -0.664335 0.342336   
     length 2.55466  
     axis 0 0 0  XYZ 
  end
  begin
     id 7 
     name rfemur
     direction -0.34202 -0.939693 0   
     length 6.83172   
     axis 0 0 -20   XYZ
    dof rx ry rz
    limits (-160.0 20.0)
           (-70.0 70.0)
           (-70.0 60.0)
  end
  begin
     id 8 
     name rtibia
     direction -0.34202 -0.939693 0   
     length 7.62692   
     axis 0 0 -20   XYZ
    dof rx
    limits (-10.0 170.0)
 end
 begin
     id 9 
     name rfoot
     direction -0.0949276 -0.260811 0.960711   
     length 2.19684  
     axis -90 -7.62852e-016 -20   XYZ
    dof rx rz
    limits (-45.0 90.0)
           (-20.0 70.0)
  end
  begin
     id 10 
     name rtoes
     direction -1.53543e-011 -4.2183e-011 1   
     length 1.09848   
     axis -90 -7.62852e-016 -20   XYZ
    dof rx
    limits (-90.0 20.0)
  end
  begin
     id 11 
     name lowerback
     direction 0.0118782 0.999815 -0.0151555   
     length 2.15772   
     axis 0 0 0   XYZ
    dof rx ry rz
    limits (-20.0 45.0)
           (-30.0 30.0)
           (-30.0 30.0)
  end
  begin
     id 12 
     name upperback
     direction 0.00130825 0.999065 0.0432113   
     length 2.14863   
     axis 0 0 0   XYZ
    dof rx ry rz
    limits (-20.0 45.0)
           (-30.0 30.0)
           (-30.0 30.0)
  end
  begin
     id 13 
     name thorax
     direction -0.00347005 0.998773 0.0494011   
     length 2.14936   
     axis 0 0 0   XYZ
    dof rx ry rz
    limits (-20.0 45.0)
           (-30.0 30.0)
           (-30.0 30.0)
  end
  begin
     id 14 
     name lowerneck
     direction -0.0262159 0.99424 0.103921   
     length 1.69373   
     axis 0 0 0   XYZ
    dof rx ry rz
    limits (-20.0 45.0)
           (-30.0 30.0)
           (-30.0 30.0)
  end
  begin
     id 15 
     name upperneck
     direction 0.0353511 0.977394 -0.20845   
     length 1.70857   
     axis 0 0 0   XYZ
    dof rx ry rz
    limits (-20.0 45.0)
           (-30.0 30.0)
           (-30.0 30.0)
  end
  begin
     id 16
     name head
     direction 0.0139214 0.996594 -0.0812836  
     length 1.72777  
     axis 0 0 0   XYZ
    dof rx ry rz
    limits (-20.0 45.0)
           (-30.0 30.0)
           (-30.0 30.0)
  end
  begin
     id 17 
     name lclavicle
     direction 0.841247 0.537205 -0.0609508  
     length 3.55371  
     axis 0 0 0   XYZ
    dof ry rz
    limits (-20.0 10.0)
           (0.0 20.0)
  end
  begin
     id 18 
     name lhumerus
     direction 1 -4.48964e-011 1.60116e-018   
     length 4.91377   
     axis -180 -30 -90   XYZ
    dof rx ry rz
    limits (-60.0 90.0)
           (-90.0 90.0)
           (-90.0 90.0)
  end
  begin
     id 19
     name lradius
     direction 1 -4.48989e-011 -8.93847e-027   
     length 3.00291   
     axis -180 -30 -90   XYZ
    dof rx
    limits (-10.0 170.0)
  end
  begin
     id 20
     name lwrist
     direction 1 -4.48932e-011 -7.31504e-027   
     length 1.50145   
     axis 5.74121e-015 90 90   XYZ
    dof ry
    limits (-180.0 0.0)
 end
  begin
     id 21 
     name lhand
     direction 1 -4.48971e-011 -1.46301e-026   
     length 0.450922   
     axis 9.33524e-015 90 90   XYZ
    dof rx rz
    limits (-90.0 90.0)
           (-45.0 45.0)
  end
  begin
     id 22 
     name lfingers
     direction 1 -4.49039e-011 -2.92602e-026   
     length 0.363545   
     axis 1.86705e-014 90 90   XYZ
    dof rx
    limits (0.0 90.0)
  end
  begin
     id 23
     name lthumb
     direction 0.707107 -6.34941e-011 0.707107   
     length 0.52198   
     axis -90 45 2.85299e-015   XYZ
    dof rx rz
    limits (-45.0 45.0)
           (-45.0 45.0)
  end
  begin
     id 24 
     name rclavicle
     direction -0.825079 0.56158 -0.0622297   
     length 3.39909  
     axis 0 0 0   XYZ 
    dof ry rz
    limits (-10.0 20.0)
           (-20.0 0.0)
  end
  begin
     id 25 
     name rhumerus
     direction -1 -4.48965e-011 1.61691e-027  
     length 4.86725   
     axis -180 30 90   XYZ
    dof rx ry rz
    limits (-90.0 60.0)
           (-90.0 90.0)
           (-90.0 90.0)
  end
  begin
     id 26 
     name rradius
     direction -1 -4.48964e-011 -2.25776e-027   
     length 3.17144   
     axis -180 30 90   XYZ
    dof rx
    limits (-10.0 170.0)
  end
  begin
     id 27 
     name rwrist
     direction -1 -4.48961e-011 -7.31504e-027   
     length 1.58572   
     axis 5.74121e-015 -90 -90   XYZ
    dof ry
    limits (-180.0 0.0)
  end
  begin
     id 28
     name rhand
     direction -1 -4.49013e-011 -1.46301e-026   
     length 0.419368   
     axis 9.33524e-015 -90 -90   XYZ
    dof rx rz
    limits (-90.0 90.0)
           (-45.0 45.0)
  end
  begin
     id 29
     name rfingers
     direction -1 -4.489e-011 -2.92602e-026   
     length 0.338105   
     axis 1.86705e-014 -90 -90   XYZ
    dof rx
    limits (0.0 90.0)
  end
  begin
     id 30
     name rthumb
     direction -0.707107 -6.35022e-011 0.707107   
     length 0.485453   
     axis -90 -45 -2.85299e-015   XYZ
    dof rx rz
    limits (-45.0 45.0)
           (-45.0 45.0)
  end
:hierarchy
  begin
    root lhipjoint rhipjoint lowerback
    lhipjoint lfemur
    lfemur ltibia
    ltibia lfoot
    lfoot ltoes
    rhipjoint rfemur
    rfemur rtibia
    rtibia rfoot
    rfoot rtoes
    lowerback upperback
    upperback thorax
    thorax lowerneck lclavicle rclavicle
    lowerneck upperneck
    upperneck head
    lclavicle lhumerus
    lhumerus lradius
    lradius lwrist
    lwrist lhand lthumb
    lhand lfingers
    rclavicle rhumerus
    rhumerus rradius
    rradius rwrist
    rwrist rhand rthumb
    rhand rfingers
  end

#!OML:ASF H:\Swim 2\Project 1\Capture day 1\Session 1\male.ASF
:FULLY-SPECIFIED
:DEGREES
1315
root 7.68478 9.84704 11.7904 94.5737 -3.96303 0.114711
lowerback -1.89453 3.44885 -3.5194
upperback -3.53807 4.75707 2.88548
thorax -3.12837 2.56094 4.89419
lowerneck -17.9533 2.66537 5.89001
upperneck 12.4597 4.52265 -14.3071
head 7.27857 1.18938 -5.18174
rclavicle 2.8625e-014 1.13307e-014
rhumerus 52.3019 -11.1646 7.55192
rradius 59.3284
rwrist 0.741569
rhand -33.5247 11.9421
rfingers 7.12502
rthumb -6.72072 -17.9313
lclavicle 2.8625e-014 1.13307e-014
lhumerus 33.2578 33.8881 7.33251
lradius 36.8625
lwrist 31.9235
lhand -30.5531 -8.3633
lfingers 7.12502
lthumb -3.85159 21.5816
rfemur -31.4632 8.51159 18.0026
rtibia 28.4242
rfoot 41.819 7.34091
rtoes 21.4312
lfemur -34.367 -12.0184 -16.8656
ltibia 33.6649
lfoot 5.46791 14.4245
ltoes 24.27
1316
root 7.69951 9.84755 11.8007 94.8344 -4.03759 0.11421
lowerback -2.17238 3.34634 -3.80816
upperback -3.60236 4.62667 2.80799
thorax -3.04206 2.50288 4.99484
lowerneck -18.0262 2.58473 5.85818
upperneck 12.581 4.4204 -14.2448
head 7.31631 1.13753 -5.17062
rclavicle 3.18055e-014 1.51076e-014
rhumerus 51.0267 -10.6149 8.07675
rradius 60.6042
rwrist 1.3425
rhand -33.8092 13.1651
rfingers 7.12502
rthumb -6.9954 -16.6993
lclavicle 3.18055e-014 1.51076e-014
lhumerus 35.9543 34.3284 8.35405
lradius 36.4907
lwrist 31.1689
lhand -30.2677 -8.45966
lfingers 7.12502
lthumb -3.576 21.4901
rfemur -32.4847 8.89658 17.7537
rtibia 27.7663
rfoot 41.3162 7.4835
rtoes 20.8628
lfemur -33.6574 -11.9237 -17.0005
ltibia 34.1191
lfoot 5.69811 13.3822
ltoes 23.4214
1317
root 7.71393 9.8494 11.8133 95.0268 -4.10554 0.15227
lowerback -2.36901 3.24989 -4.10327
upperback -3.65857 4.50315 2.72224
thorax -2.99291 2.44856 5.08466
lowerneck -18.0958 2.47947 5.80437
upperneck 12.7313 4.29086 -14.1687
head 7.35912 1.07215 -5.15503
rclavicle -1.43125e-014 -4.87022e-015
rhumerus 49.6476 -10.101 8.44134
rradius 61.7347
rwrist 1.7594
rhand -33.9353 13.9209
rfingers 7.12502
rthumb -7.11716 -15.9394
lclavicle -1.43125e-014 -4.87022e-015
lhumerus 38.7639 34.7154 9.54192
lradius 36.1052
lwrist 30.4845
lhand -30.0218 -8.4561
lfingers 7.12502
lthumb -3.33853 21.4975
rfemur -33.3941 9.28541 17.4968
rtibia 27.0625
rfoot 40.844 7.52795
rtoes 20.6973
lfemur -32.86 -11.8053 -17.1598
ltibia 34.5547
lfoot 5.93227 12.3561
ltoes 22.6865
1318
root 7.72828 9.85224 11.8265 95.1189 -4.1658 0.231611
lowerback -2.4505 3.16471 -4.40523
upperback -3.69987 4.39153 2.63357
thorax -2.99401 2.40085 5.16787
lowerneck -18.1612 2.34701 5.73145
upperneck 12.9049 4.13233 -14.0971
head 7.40563 0.991222 -5.14188
rclavicle 1.59028e-014 -2.68359e-015
rhumerus 48.164 -9.61197 8.67153
rradius 62.6962
rwrist 1.95125
rhand -33.9768 14.2687
rfingers 7.12502
rthumb -7.15716 -15.5902
lclavicle 1.59028e-014 -2.68359e-015
lhumerus 41.7134 35.0396 10.9453
lradius 35.7093
lwrist 29.8873
lhand -29.7981 -8.37336
lfingers 7.12502
lthumb -3.1225 21.5835
rfemur -34.1283 9.64563 17.2562
rtibia 26.3144
rfoot 40.4336 7.46927
rtoes 20.8911
lfemur -31.9673 -11.6715 -17.3453
ltibia 35.0025
lfoot 6.15586 11.3972
ltoes 22.0727
1319
root 7.74256 9.85577 11.839 95.143 -4.21627 0.340677
lowerback -2.45466 3.0986 -4.71319
upperback -3.7304 4.3029 2.54382
thorax -3.03008 2.36541 5.24837
lowerneck -18.2457 2.17739 5.61274
upperneck 13.1184 3.93491 -14.0044
head 7.46311 0.889593 -5.11955
rclavicle 7.95139e-014 4.83047e-014
rhumerus 46.5677 -9.16755 8.8149
rradius 63.4752
rwrist 1.88909
rhand -33.9497 14.2958
rfingers 7.12502
rthumb -7.13097 -15.564
lclavicle 7.95139e-014 4.83047e-014
lhumerus 44.7632 35.2755 12.5076
lradius 35.325
lwrist 29.4602
lhand -29.5874 -8.22311
lfingers 7.12502
lthumb -2.91901 21.7367
rfemur -34.702 9.96061 17.0466
rtibia 25.5328
rfoot 40.1375 7.29696
rtoes 21.2593
lfemur -31.0404 -11.5082 -17.5433
ltibia 35.4932
lfoot 6.39398 10.5157
ltoes 21.8262
1320
root 7.75691 9.85988 11.8515 95.1019 -4.26055 0.48186
lowerback -2.38292 3.04385 -5.02826
upperback -3.75497 4.22596 2.45148
thorax -3.10406 2.33687 5.32561
lowerneck -18.3331 1.99225 5.49016
upperneck 13.3575 3.7268 -13.9496
head 7.52998 0.778718 -5.11178
rclavicle 1.39944e-013 7.11649e-014
rhumerus 44.8913 -8.75778 8.84175
rradius 64.0528
rwrist 1.57739
rhand -33.8655 14.115
rfingers 7.12502
rthumb -7.04976 -15.7476
lclavicle 1.39944e-013 7.11649e-014
lhumerus 47.8686 35.4092 14.1844
lradius 34.9637
lwrist 29.2177
lhand -29.3766 -8.05799
lfingers 7.12502
lthumb -2.71545 21.9045
rfemur -35.1143 10.1944 16.8867
rtibia 24.7405
rfoot 39.989 7.07034
rtoes 21.6717
lfemur -30.104 -11.3264 -17.7509
ltibia 36.0484
lfoot 6.66429 9.74008
ltoes 21.9512
1321
root 7.77123 9.8645 11.8637 95.0085 -4.29473 0.658428
lowerback -2.24681 2.99306 -5.34201
upperback -3.77846 4.1504 2.3611
thorax -3.21304 2.31008 5.40055
lowerneck -18.3987 1.79663 5.33542
upperneck 13.5809 3.51481 -13.9115
head 7.58807 0.664275 -5.10431
rclavicle 1.59028e-015 1.33186e-014
rhumerus 43.1654 -8.34419 8.70493
rradius 64.4202
rwrist 1.04631
rhand -33.7991 13.7692
rfingers 7.12502
rthumb -6.98561 -16.0956
lclavicle 1.59028e-015 1.33186e-014
lhumerus 50.9748 35.4307 15.9309
lradius 34.6292
lwrist 29.1148
lhand -29.1805 -7.90877
lfingers 7.12502
lthumb -2.52604 22.056
rfemur -35.3774 10.3294 16.7965
rtibia 23.9644
rfoot 39.9649 6.83643
rtoes 22.0402
lfemur -29.195 -11.1363 -17.9541
ltibia 36.6822
lfoot 6.97592 9.06986
ltoes 22.3803
1322
root 7.78532 9.86935 11.8756 94.8674 -4.31839 0.876521
lowerback -2.05422 2.94571 -5.65114
upperback -3.80188 4.07506 2.26976
thorax -3.35305 2.28433 5.46895
lowerneck -18.4497 1.59551 5.17226
upperneck 13.8137 3.30697 -13.9164
head 7.64879 0.547894 -5.11002
rclavicle 4.77083e-014 -2.78299e-015
rhumerus 41.3762 -7.94526 8.41412
rradius 64.5928
rwrist 0.316516
rhand -33.7399 13.3516
rfingers 7.12502
rthumb -6.92853 -16.515
lclavicle 4.77083e-014 -2.78299e-015
lhumerus 54.066 35.3276 17.726
lradius 34.3141
lwrist 29.0698
lhand -29.0283 -7.80188
lfingers 7.12502
lthumb -2.37902 22.1646
rfemur -35.4959 10.3556 16.7867
rtibia 23.2383
rfoot 40.0473 6.59767
rtoes 22.2578
lfemur -28.3393 -10.9495 -18.1473
ltibia 37.3934
lfoot 7.34005 8.48349
ltoes 23.0216
1323
root 7.79865 9.87421 11.8869 94.7019 -4.3357 1.13169
lowerback -1.83493 2.90074 -5.96338
upperback -3.82698 3.99949 2.17411
thorax -3.50954 2.25938 5.53348
lowerneck -18.4974 1.39094 5.00791
upperneck 14.0676 3.10555 -13.9645
head 7.71807 0.430182 -5.13048
rclavicle -4.29375e-014 -5.46658e-015
rhumerus 39.5175 -7.58279 7.96851
rradius 64.5916
rwrist -0.564202
rhand -33.713 12.9053
rfingers 7.12502
rthumb -6.90253 -16.9622
lclavicle -4.29375e-014 -5.46658e-015
lhumerus 57.1114 35.0971 19.5329
lradius 34.0138
lwrist 28.9825
lhand -28.9589 -7.7514
lfingers 7.12502
lthumb -2.31197 22.2158
rfemur -35.4973 10.2763 16.8569
rtibia 22.5883
rfoot 40.0913 6.35401
rtoes 22.324
lfemur -27.5767 -10.7693 -18.3245
ltibia 38.1703
lfoot 7.75716 7.94165
ltoes 23.7511
